REM DIRINDEX 1\2\5,1\2\6,1\2\7,1\2\8,1\3\9,1\3\10,1\3\11,1\4\12,1\4\13,1\4\14,1\4\15,1\4\16
REM DIRNAME cjc034,folder01,folder02,folder03,folder04,folder05,folder06,folder07,folder08,folder09,folder10,folder11,folder12,folder13,folder14,folder15
TITLE ""
FILE "1200_2_sec03_0943_0959.mp3" MP3
  TRACK 01 AUDIO
    TITLE "0:"
    INDEX 01 00:00:00
  TRACK 02 AUDIO
    TITLE "11:cjc034_01942"
    INDEX 01 00:00:15
  TRACK 03 AUDIO
    TITLE "0:"
    INDEX 01 00:04:70
  TRACK 04 AUDIO
    TITLE "10:cjc034_01943"
    INDEX 01 00:05:73
  TRACK 05 AUDIO
    TITLE "0:"
    INDEX 01 00:06:65
  TRACK 06 AUDIO
    TITLE "9:cjc034_01944"
    INDEX 01 00:06:69
  TRACK 07 AUDIO
    TITLE "0:"
    INDEX 01 00:08:05
  TRACK 08 AUDIO
    TITLE "10:cjc034_01945"
    INDEX 01 00:08:58
  TRACK 09 AUDIO
    TITLE "0:"
    INDEX 01 00:10:04
  TRACK 10 AUDIO
    TITLE "9:cjc034_01946"
    INDEX 01 00:10:12
  TRACK 11 AUDIO
    TITLE "0:"
    INDEX 01 00:11:17
  TRACK 12 AUDIO
    TITLE "10:cjc034_01947"
    INDEX 01 00:12:03
  TRACK 13 AUDIO
    TITLE "0:"
    INDEX 01 00:12:63
  TRACK 14 AUDIO
    TITLE "9:cjc034_01948"
    INDEX 01 00:12:65
  TRACK 15 AUDIO
    TITLE "0:"
    INDEX 01 00:13:73
  TRACK 16 AUDIO
    TITLE "10:cjc034_01949"
    INDEX 01 00:14:56
  TRACK 17 AUDIO
    TITLE "0:"
    INDEX 01 00:15:34
  TRACK 18 AUDIO
    TITLE "9:cjc034_01950"
    INDEX 01 00:15:50
  TRACK 19 AUDIO
    TITLE "0:"
    INDEX 01 00:16:65
  TRACK 20 AUDIO
    TITLE "10:cjc034_01951"
    INDEX 01 00:17:47
  TRACK 21 AUDIO
    TITLE "0:"
    INDEX 01 00:18:64
  TRACK 22 AUDIO
    TITLE "9:cjc034_01952"
    INDEX 01 00:18:66
  TRACK 23 AUDIO
    TITLE "0:"
    INDEX 01 00:20:02
  TRACK 24 AUDIO
    TITLE "10:cjc034_01953"
    INDEX 01 00:20:55
  TRACK 25 AUDIO
    TITLE "0:"
    INDEX 01 00:21:47
  TRACK 26 AUDIO
    TITLE "9:cjc034_01954"
    INDEX 01 00:21:49
  TRACK 27 AUDIO
    TITLE "0:"
    INDEX 01 00:22:62
  TRACK 28 AUDIO
    TITLE "10:cjc034_01955"
    INDEX 01 00:23:44
  TRACK 29 AUDIO
    TITLE "0:"
    INDEX 01 00:25:41
  TRACK 30 AUDIO
    TITLE "9:cjc034_01956"
    INDEX 01 00:25:45
  TRACK 31 AUDIO
    TITLE "0:"
    INDEX 01 00:26:54
  TRACK 32 AUDIO
    TITLE "10:cjc034_01957"
    INDEX 01 00:27:36
  TRACK 33 AUDIO
    TITLE "0:"
    INDEX 01 00:28:47
  TRACK 34 AUDIO
    TITLE "9:cjc034_01958"
    INDEX 01 00:28:51
  TRACK 35 AUDIO
    TITLE "0:"
    INDEX 01 00:29:64
  TRACK 36 AUDIO
    TITLE "11:cjc034_01959"
    INDEX 01 00:31:39
  TRACK 37 AUDIO
    TITLE "0:"
    INDEX 01 00:36:42
  TRACK 38 AUDIO
    TITLE "10:cjc034_01960"
    INDEX 01 00:37:44
  TRACK 39 AUDIO
    TITLE "0:"
    INDEX 01 00:38:63
  TRACK 40 AUDIO
    TITLE "9:cjc034_01961"
    INDEX 01 00:38:67
  TRACK 41 AUDIO
    TITLE "0:"
    INDEX 01 00:40:13
  TRACK 42 AUDIO
    TITLE "10:cjc034_01962"
    INDEX 01 00:40:70
  TRACK 43 AUDIO
    TITLE "0:"
    INDEX 01 00:42:06
  TRACK 44 AUDIO
    TITLE "9:cjc034_01963"
    INDEX 01 00:42:10
  TRACK 45 AUDIO
    TITLE "0:"
    INDEX 01 00:43:25
  TRACK 46 AUDIO
    TITLE "10:cjc034_01964"
    INDEX 01 00:44:07
  TRACK 47 AUDIO
    TITLE "0:"
    INDEX 01 00:45:47
  TRACK 48 AUDIO
    TITLE "9:cjc034_01965"
    INDEX 01 00:45:53
  TRACK 49 AUDIO
    TITLE "0:"
    INDEX 01 00:46:70
  TRACK 50 AUDIO
    TITLE "10:cjc034_01966"
    INDEX 01 00:47:52
  TRACK 51 AUDIO
    TITLE "0:"
    INDEX 01 00:50:56
  TRACK 52 AUDIO
    TITLE "9:cjc034_01967"
    INDEX 01 00:50:62
  TRACK 53 AUDIO
    TITLE "0:"
    INDEX 01 00:52:10
  TRACK 54 AUDIO
    TITLE "10:cjc034_01968"
    INDEX 01 00:52:65
  TRACK 55 AUDIO
    TITLE "0:"
    INDEX 01 00:55:24
  TRACK 56 AUDIO
    TITLE "9:cjc034_01969"
    INDEX 01 00:55:28
  TRACK 57 AUDIO
    TITLE "0:"
    INDEX 01 00:56:49
  TRACK 58 AUDIO
    TITLE "10:cjc034_01970"
    INDEX 01 00:57:31
  TRACK 59 AUDIO
    TITLE "0:"
    INDEX 01 00:59:65
  TRACK 60 AUDIO
    TITLE "9:cjc034_01971"
    INDEX 01 00:59:69
  TRACK 61 AUDIO
    TITLE "0:"
    INDEX 01 01:01:15
  TRACK 62 AUDIO
    TITLE "10:cjc034_01972"
    INDEX 01 01:01:72
  TRACK 63 AUDIO
    TITLE "0:"
    INDEX 01 01:03:10
  TRACK 64 AUDIO
    TITLE "9:cjc034_01973"
    INDEX 01 01:03:12
  TRACK 65 AUDIO
    TITLE "0:"
    INDEX 01 01:04:41
  TRACK 66 AUDIO
    TITLE "10:cjc034_01974"
    INDEX 01 01:05:15
  TRACK 67 AUDIO
    TITLE "0:"
    INDEX 01 01:06:24
  TRACK 68 AUDIO
    TITLE "9:cjc034_01975"
    INDEX 01 01:06:34
  TRACK 69 AUDIO
    TITLE "0:"
    INDEX 01 01:07:47
  TRACK 70 AUDIO
    TITLE "10:cjc034_01976"
    INDEX 01 01:08:25
  TRACK 71 AUDIO
    TITLE "0:"
    INDEX 01 01:09:40
  TRACK 72 AUDIO
    TITLE "9:cjc034_01977"
    INDEX 01 01:09:44
  TRACK 73 AUDIO
    TITLE "0:"
    INDEX 01 01:10:63
